<?xml version="1.0" encoding="utf-8"?>
<!-- Generator: Adobe Illustrator 21.0.2, SVG Export Plug-In . SVG Version: 6.00 Build 0)  -->
<svg version="1.1" id="Ebene_1" xmlns="http://www.w3.org/2000/svg" xmlns:xlink="http://www.w3.org/1999/xlink" x="0px" y="0px"
	 viewBox="0 0 591 295" style="enable-background:new 0 0 591 295;" xml:space="preserve">
<style type="text/css">
	.st0{display:none;}
	.st1{fill:#1D171A;}
	.st2{fill:url(#SVGID_1_);}
	.st3{fill:url(#SVGID_2_);}
	.st4{fill:url(#SVGID_3_);}
</style>
<g id="Ebene_1_1_" class="st0">
</g>
<g id="Ebene_2">
	<g>
		<path class="st1" d="M140,118.2c0-22.5,7-31,26.5-31s26.5,8.7,26.5,31c0,22.2-7,31-26.5,31S140,140.9,140,118.2 M184.7,118.2
			c0-18.4-4.4-24-18.2-24c-13.6,0-18.2,4.9-18.2,24s4.6,24,18.2,24C180.2,142.3,184.7,136.6,184.7,118.2"/>
		<path class="st1" d="M238.5,93.6c-9,0.3-19.4,2.1-23.5,3.9c-0.2,2.9-0.3,6.1-0.3,9v41.9h-8.2v-46c0-3.6,0.1-6.6,0.3-9.9
			c6.6-3.5,21.9-5.1,31.6-5.3L238.5,93.6L238.5,93.6z"/>
		<path class="st1" d="M249.4,87c39.5-0.8,41.5,5.2,41.5,20.2v26.9c0,7.4-0.3,10.9-0.3,10.9c-8.6,3-15.6,4.3-25.2,4.3
			c-16.2,0-23.5-5-23.5-18c0-10.4,4.4-17.6,15.1-19.9c7.2-1.6,16-1.7,25.9-1.7v-1.1c0-11.1,0.9-15.8-33.4-15V87H249.4z M266.2,142.5
			c5.2,0,10.3-0.4,16.4-2.2c0,0,0.3-7.2,0.3-10v-14.5c-8.6,0-16.7,0.3-23.1,1.6c-6.9,1.4-9.7,5.3-9.7,13.7
			C249.9,140.3,254.9,142.5,266.2,142.5"/>
		<path class="st1" d="M41.5,72.3c-2-0.7-4-0.9-6.4-0.9c-2.1,0-3.8,0.3-6,0.9L1,148.4h8.9l8.1-22.7h33.8l8.1,22.7h9.3L41.5,72.3z
			 M20.5,118.8l14.4-40.1l14.4,40.1H20.5z"/>
		<path class="st1" d="M125.7,92.1c-6.6-3.5-15.1-4.9-22.7-4.9c-19,0-27.2,7.4-27.2,30.4c0,22.8,7.5,30.3,25.3,30.3
			c5.7,0,11.3-0.9,16.7-2.3v5c0,9.9-3.4,13.9-16.4,13.9c-7,0-14.1-0.9-20.5-1.8l-0.7,6.5c6.9,1.1,14.4,2.2,22.9,2.2
			c12.9,0,23.1-3.3,23.1-18.4v-50.7C126,98.9,125.9,95.4,125.7,92.1 M117.9,138.7c-3.7,1.3-9.4,2.3-14.1,2.3
			c-16.6,0-19.7-7-19.7-23.5c0-15.7,4.1-23.5,18.9-23.5c4.7,0,10.4,0.9,14.5,2.7c0.2,2.9,0.3,6.6,0.3,9.5L117.9,138.7L117.9,138.7z"
			/>
	</g>
	<g>
		
			<linearGradient id="SVGID_1_" gradientUnits="userSpaceOnUse" x1="342.5" y1="699.45" x2="587.1" y2="699.45" gradientTransform="matrix(1 0 0 1 0 -546)">
			<stop  offset="0.1604" style="stop-color:#1D4A62"/>
			<stop  offset="0.2324" style="stop-color:#194A6A"/>
			<stop  offset="0.5215" style="stop-color:#0B4984"/>
			<stop  offset="0.7815" style="stop-color:#034893"/>
			<stop  offset="0.9854" style="stop-color:#004899"/>
		</linearGradient>
		<path class="st2" d="M390.4,145c-5.3-12.7-8.2-26.6-8.2-41.2c0-24.1,7.9-46.3,21.3-64.2c-0.3,0-0.7,0.1-1,0.1
			c-35.9,21.3-60,60.5-60,105.3c0,45.5,24.8,85.2,61.7,106.3c0.1,0.1,0.3,0.2,0.4,0.2c17.8,10.1,38.3,15.8,60.2,15.8
			c67.5,0,122.2-54.7,122.3-122.1c0-0.1-0.1-0.2-0.1-0.2c-14.2,34.2-45.6,59.3-83.4,64.7c-4.9,0.7-9.9,1.1-14.9,1.1
			C444.4,210.8,406.4,183.6,390.4,145z"/>
		
			<linearGradient id="SVGID_2_" gradientUnits="userSpaceOnUse" x1="494.85" y1="813.5" x2="494.85" y2="568.8" gradientTransform="matrix(1 0 0 1 0 -546)">
			<stop  offset="1.340515e-02" style="stop-color:#006BAB"/>
			<stop  offset="9.821372e-02" style="stop-color:#1A7DAF"/>
			<stop  offset="0.2541" style="stop-color:#449AB4"/>
			<stop  offset="0.3953" style="stop-color:#62AFB9"/>
			<stop  offset="0.5157" style="stop-color:#74BBBB"/>
			<stop  offset="0.6009" style="stop-color:#7BC0BC"/>
		</linearGradient>
		<path class="st3" d="M587,145c0-0.1,0.1-0.2,0.1-0.2c-0.1-67.4-54.8-122-122.3-122c-22,0-42.7,5.8-60.5,16c-0.1,0-0.1,0.1-0.2,0.1
			l-1.6,1l1.1-0.2c4.8-0.7,9.8-1,14.8-1c34.3,0,64.9,16.3,84.4,41.7c13.9,18.1,22.2,40.7,22.2,65.3c0,24.1-7.9,46.3-21.3,64.2
			c-19.4,26-50.4,42.7-85.2,42.7c-4.7,0-9.3-0.3-13.8-0.9c17.8,10.1,38.3,15.8,60.2,15.8c67.5,0,122.2-54.7,122.3-122.1
			C587.1,145.2,587,145.1,587,145z"/>
		
			<linearGradient id="SVGID_3_" gradientUnits="userSpaceOnUse" x1="343.1482" y1="720.6628" x2="563.0463" y2="613.4114" gradientTransform="matrix(1 0 0 1 0 -546)">
			<stop  offset="0" style="stop-color:#7BC0BC"/>
			<stop  offset="1.458951e-02" style="stop-color:#7BC0BC"/>
			<stop  offset="0.1005" style="stop-color:#7BC0BC"/>
			<stop  offset="0.2909" style="stop-color:#469BB5"/>
			<stop  offset="0.5566" style="stop-color:#006BAB"/>
			<stop  offset="0.9643" style="stop-color:#006BAB"/>
		</linearGradient>
		<path class="st4" d="M404.1,38.8c-0.2,0.3-0.4,0.5-0.6,0.8c-0.3,0-0.7,0.1-1,0.1c-35.9,21.3-60,60.5-60,105.3
			c0,45.5,24.8,85.2,61.7,106.3c-13.8-18-22-40.6-22-65.1c0-14.6,2.9-28.5,8.2-41.2c16.1-38.6,54-65.7,98.3-65.7
			c4.8,0,9.5,0.3,14.1,0.9c38.1,5.1,69.9,30.4,84.2,64.8c0-0.1,0.1-0.2,0.1-0.2c-0.1-67.4-54.8-122-122.3-122
			C442.7,22.8,422,28.6,404.1,38.8z"/>
	</g>
</g>
<path class="st1" d="M139.9,118.5c0-22.5,7-30.9,26.4-30.9s26.4,8.7,26.4,30.9c0,22.1-7,30.9-26.4,30.9S139.9,141,139.9,118.5
	 M184.5,118.5c0-18.3-4.3-24-18.2-24c-13.6,0-18.2,4.9-18.2,24s4.6,24,18.2,24C180.1,142.5,184.5,136.8,184.5,118.5"/>
<path class="st1" d="M238.2,93.9c-9,0.3-19.4,2.1-23.4,3.9c-0.2,2.8-0.2,6.1-0.2,8.9v41.8h-8.2v-45.9c0-3.5,0.1-6.6,0.3-9.9
	c6.6-3.5,21.9-5.1,31.5-5.3L238.2,93.9L238.2,93.9z"/>
<path class="st1" d="M249,87.3c39.4-0.8,41.4,5.2,41.4,20.1v26.9c0,7.4-0.3,10.8-0.3,10.8c-8.6,3-15.5,4.3-25.2,4.3
	c-16.1,0-23.4-4.9-23.4-18c0-10.4,4.4-17.6,15-19.8c7.2-1.5,16-1.7,25.8-1.7v-1.1c0-11.1,0.8-15.8-33.3-15V87.3z M265.8,142.7
	c5.2,0,10.2-0.4,16.3-2.2c0,0,0.2-7.2,0.2-10V116c-8.6,0-16.6,0.3-23,1.6c-6.9,1.4-9.8,5.3-9.8,13.6
	C249.6,140.5,254.5,142.7,265.8,142.7"/>
<path class="st1" d="M41.5,72.6c-2-0.7-4-0.9-6.3-0.9c-2.1,0-3.8,0.3-6,0.9L1.1,148.5H10l8.1-22.7h33.7l8.1,22.7h9.3L41.5,72.6z
	 M20.6,119L35,79l14.3,40H20.6z"/>
<path class="st1" d="M125.6,92.4c-6.6-3.5-15-4.8-22.6-4.8c-19,0-27.1,7.4-27.1,30.3c0,22.7,7.4,30.2,25.3,30.2
	c5.7,0,11.3-0.9,16.6-2.3v5c0,9.9-3.4,13.9-16.4,13.9c-6.9,0-14.1-0.9-20.5-1.8l-0.7,6.5c6.8,1.1,14.3,2.2,22.8,2.2
	c12.8,0,23-3.3,23-18.3v-50.6C126,99.1,125.8,95.7,125.6,92.4 M117.8,138.9c-3.7,1.3-9.4,2.4-14,2.4c-16.6,0-19.6-6.9-19.6-23.4
	c0-15.7,4.1-23.5,18.9-23.5c4.7,0,10.5,0.8,14.5,2.7c0.1,2.9,0.2,6.6,0.2,9.5L117.8,138.9L117.8,138.9z"/>
<path class="st1" d="M15.8,210.4c-0.5,1.5-1.2,2.1-2.3,2.1c-1.1,0-1.9-0.6-2.4-2.1L1.9,184h3.3l8.2,24.5l8.4-24.5H25L15.8,210.4z"/>
<path class="st1" d="M26.3,201.5c0-7.8,2.3-11.1,9.4-11.1c7.3,0,9.3,3.8,9.3,9.7c0,0.6,0,1.4-0.1,2c-2.5,0.4-7.6,0.9-10.6,1
	l-5.1,0.2c0.4,4.4,1.7,6.7,7.1,6.7c2.8,0,5.4-0.3,7.6-0.6l0.3,2.4c-2.5,0.4-5,0.7-9,0.7C28.2,212.6,26.3,207.9,26.3,201.5
	 M34.9,200.9c1.9-0.1,5.1-0.3,7.1-0.6c0-0.4,0-1.1,0-1.5c0-3.7-1.6-6-6.3-6c-5.4,0-6.6,2.8-6.6,8.4L34.9,200.9z"/>
<path class="st1" d="M50.4,212.3v-16.4c0-1.3,0-2.5,0.1-3.7c2.4-1.2,5.4-1.7,8.1-1.7c0.7,0,1.4,0,2,0.1l-0.2,2.5
	c-0.5-0.1-1.1-0.1-1.8-0.1c-1.7,0-3.7,0.3-5.2,1c-0.1,1-0.1,2.4-0.1,3.4v15h-2.9V212.3z"/>
<polygon class="st1" points="68.1,200.6 77.4,190.7 81,190.7 70.9,201.2 81.6,212.3 77.8,212.3 68.1,202.1 68.1,212.3 65.1,212.3 
	65.1,182.4 68.1,182.4 "/>
<path class="st1" d="M84.8,201.5c0-7.8,2.3-11.1,9.4-11.1c7.3,0,9.3,3.8,9.3,9.7c0,0.6,0,1.4-0.1,2c-2.5,0.4-7.6,0.9-10.6,1
	l-5.1,0.2c0.4,4.4,1.7,6.7,7.1,6.7c2.8,0,5.4-0.3,7.6-0.6l0.3,2.4c-2.5,0.4-5,0.7-9,0.7C86.7,212.6,84.8,207.9,84.8,201.5
	 M93.4,200.9c1.9-0.1,5.1-0.3,7.1-0.6c0-0.4,0-1.1,0-1.5c0-3.7-1.6-6-6.3-6c-5.4,0-6.6,2.8-6.6,8.4L93.4,200.9z"/>
<path class="st1" d="M123.5,212.3v-13.5c0-4.1-0.8-5.8-6.3-5.8c-1.7,0-3.7,0.3-5.4,0.9v18.4h-2.9v-29.9h2.9v8.9
	c1.9-0.5,3.9-0.9,6.3-0.9c7.4,0,8.3,3.1,8.3,7.7v14.1h-2.9V212.3z"/>
<path class="st1" d="M133.2,212.3v-16.4c0-1.3,0-2.5,0.1-3.7c2.4-1.2,5.4-1.7,8.1-1.7c0.7,0,1.4,0,2,0.1l-0.2,2.5
	c-0.5-0.1-1.1-0.1-1.8-0.1c-1.7,0-3.7,0.3-5.2,1c-0.1,1-0.1,2.4-0.1,3.4v15h-2.9V212.3z"/>
<path class="st1" d="M149.1,195.9c0,2.9,2.2,3.2,5.3,4.2c4.3,1.3,6.8,2.4,6.8,6.4c0,4.8-3.5,6.1-8.2,6.1c-2.3,0-4.6-0.2-6.9-0.7
	l0.3-2.3c1.8,0.3,3.8,0.5,5.5,0.5c2.5,0,6.3,0,6.3-3.4c0-2.7-1.9-3.2-5.3-4.2c-3.4-1-6.8-1.8-6.8-6.2c0-4.5,3.1-5.8,7.5-5.8
	c2.7,0,4.7,0.2,7,0.7l-0.3,2.3c-1.6-0.3-3.4-0.5-5.4-0.5C152.4,192.9,149.1,192.9,149.1,195.9"/>
<path class="st1" d="M173,209l5.7-14.6c0.5-1.4,1.1-2,2.1-2s1.6,0.7,2.1,2l5.5,14.6l4.9-18.3h2.9l-5.5,19.7
	c-0.4,1.4-1.1,2.1-2.2,2.1c-1.1,0-1.7-0.7-2.3-2.1l-5.4-14.2l-5.7,14.2c-0.6,1.4-1.1,2.1-2.2,2.1c-1.1,0-1.9-0.7-2.3-2.1l-5.4-19.7
	h3L173,209z"/>
<path class="st1" d="M199.9,201.5c0-7.8,2.3-11.1,9.4-11.1c7.3,0,9.3,3.8,9.3,9.7c0,0.6,0,1.4-0.1,2c-2.5,0.4-7.6,0.9-10.6,1
	l-5.1,0.2c0.4,4.4,1.7,6.7,7.1,6.7c2.8,0,5.4-0.3,7.6-0.6l0.3,2.4c-2.5,0.4-5,0.7-9,0.7C201.8,212.6,199.9,207.9,199.9,201.5
	 M208.5,200.9c1.9-0.1,5.1-0.3,7.1-0.6c0-0.4,0-1.1,0-1.5c0-3.7-1.6-6-6.3-6c-5.4,0-6.6,2.8-6.6,8.4L208.5,200.9z"/>
<path class="st1" d="M227,212.3h-3v-16.4c0-1.3,0-2.5,0.1-3.7c2.4-1.1,5.9-1.8,9.7-1.8c7.4,0,8.1,3.5,8.1,7.8v14H239v-13.5
	c0-4.1-0.7-5.9-6.1-5.9c-1.8,0-4.5,0.4-5.8,1.1c-0.1,1-0.1,2.4-0.1,3.4V212.3z"/>
<path class="st1" d="M262.3,182.4h2.9v24.8c0,1.3,0,2.5-0.1,3.7c-2.4,1.2-5.4,1.7-8.1,1.7c-6.8,0-9.7-2.7-9.7-11.1
	c0-8.2,2.6-11.1,9-11.1c2.1,0,4.1,0.3,6,0.8L262.3,182.4L262.3,182.4z M257.3,192.8c-6,0-7,2.6-7,8.6c0,5.8,1.4,8.6,6.8,8.6
	c1.7,0,3.7-0.3,5.2-1c0-1,0.1-2.4,0.1-3.4v-12.1C260.9,193.2,258.9,192.8,257.3,192.8"/>
<path class="st1" d="M270.9,201.5c0-7.8,2.3-11.1,9.4-11.1c7.3,0,9.3,3.8,9.3,9.7c0,0.6,0,1.4-0.1,2c-2.5,0.4-7.6,0.9-10.6,1
	l-5.1,0.2c0.4,4.4,1.7,6.7,7.1,6.7c2.8,0,5.4-0.3,7.6-0.6l0.3,2.4c-2.5,0.4-5,0.7-9,0.7C272.8,212.6,270.9,207.9,270.9,201.5
	 M279.5,200.9c1.9-0.1,5.1-0.3,7.1-0.6c0-0.4,0-1.1,0-1.5c0-3.7-1.6-6-6.3-6c-5.4,0-6.6,2.8-6.6,8.4L279.5,200.9z"/>
</svg>
