<?xml version="1.0" encoding="utf-8"?>
<!-- Generator: Adobe Illustrator 22.1.0, SVG Export Plug-In . SVG Version: 6.00 Build 0)  -->
<svg version="1.1" id="Ebene_1" xmlns="http://www.w3.org/2000/svg" xmlns:xlink="http://www.w3.org/1999/xlink" x="0px" y="0px"
	 viewBox="0 0 547.3 64.5" style="enable-background:new 0 0 547.3 64.5;" xml:space="preserve">
<style type="text/css">
	.st0{fill:#019EDF;}
</style>
<title>UNHABITAT</title>
<path class="st0" d="M169.9,36c-0.4,0.1-0.8,0.1-1.2,0.1c-1,0.1-2.2,0-3.3,0.1c-0.3,0-0.7,0-1,0c-0.1,0-0.2,0.1-0.3,0.2
	c-0.1,0.2-0.2,0.4-0.3,0.6c-0.1,0.7-0.2,1.4-0.1,2.1l-0.1,1.7c0,0.9,0,1.8,0.1,2.6c0,0.5,0.1,0.9,0.3,1.4c0.3,0.3,1.5,0.3,2.1,0.3
	c0.1,0,0.3,0,0.4,0h0.2l0.7-0.2c0.5-0.2,0.9-0.3,1.4-0.5l1.9-1l0.8-0.5l0.5-0.5c0.3-0.2,0.5-0.5,0.8-0.6c0.9-0.5,1.7-1,2.5-1.7
	c0.3-0.4,0.7-0.9,0.9-1.4c0.3-0.4,0.6-0.9,0.8-1.4c0-0.2-0.1-0.2-0.3-0.2c-1.9-0.4-3.9-0.6-5.9-0.8C170.5,36.2,170.3,36,169.9,36
	 M153.1,25.3c-0.1,0-0.2,0.1-0.3,0.1c-0.1,0.2-0.3,0.3-0.4,0.5c-0.2,0.3-0.4,0.6-0.6,0.9s-0.2,0.6-0.3,0.9s-0.3,0.4-0.4,0.6
	s-0.3,0.6-0.4,1c-0.3,0.6-0.7,1.1-1,1.7c-0.1,0.2-0.2,0.4-0.2,0.6c-0.1,0.5,0.1,0.8,0.6,0.8h0.4h0.3h0.2h0.3h0.2h0.4h0.5
	c0.6,0,1.1,0,1.7,0.1h0.3l0.4-0.1c0.3-0.1,0.9,0,1.3,0h0.3h0.1h0.3h0.7h0.1c0.1,0,0.2-0.1,0.2-0.1c0.2-0.2,0.1-1.1,0.1-1.4
	c0-0.5,0-1.2-0.1-1.7c0-0.4,0-0.8-0.1-1.2c-0.1-0.2-0.3-0.4-0.6-0.6c-0.4-0.3-0.8-0.5-1.2-0.7l-1.4-0.5c-0.4-0.3-0.9-0.5-1.4-0.6
	 M168.9,25.1c-0.6,0.3-1.2,0.6-1.8,1c-1.1,0.5-2.1,1.4-2.9,2.4c-0.2,0.6-0.4,1.3-0.4,1.9c0,0.2-0.2,1,0,1.2l0.1,0.1
	c0.3,0.1,0.6,0.1,0.8,0.1l2,0.1c0.5,0,1,0.1,1.6,0.2l2.6,0.1l1,0.1l0,0c0.3-0.1,0.7-0.2,1-0.2h0.2c0.2-0.1,0.6-0.3,0.5-0.6
	c-0.1-0.2-0.2-0.5-0.3-0.7c-0.4-0.8-0.9-1.5-1.5-2.1l-0.9-1.4c-0.2-0.2-0.4-0.5-0.6-0.7l-0.2-0.4c-0.1-0.3-0.3-0.5-0.5-0.8
	c-0.1-0.1-0.2-0.2-0.4-0.2 M165.1,19.8c-0.1,0.4-0.1,0.9,0,1.3c0,0.1,0,0.3,0,0.4c-0.1,0.4-0.2,0.8-0.4,1.2
	c-0.1,0.2-0.4,0.4-0.4,0.6s0.1,0.2,0.3,0.2c0.6-0.4,2.3-1,1.9-2c-0.1-0.4-0.5-0.6-0.7-0.9S165.5,19.9,165.1,19.8 M160.2,14.5
	c-0.5,0.2-0.9,0.5-1.2,0.9l-0.4,0.4l-0.4,0.5l-0.5,0.5l-0.4,0.6l-0.4,0.4l-0.2,0.5c-0.4,0.6-0.6,1.2-0.9,1.8
	c-0.1,0.2-0.3,0.3-0.4,0.5s-0.2,0.6-0.3,0.9s-0.5,0.8-0.4,1.1s0.9,0.5,1.2,0.6c1.4,0.8,2.8,1.3,4.4,1.6c0.2,0.1,0.4,0.1,0.7,0.1h0.2
	h0.1h0.3h0.2c0.2-0.1,0.5-0.3,0.5-0.6c-0.4-0.2-0.8-0.1-1.3-0.1c-0.9,0-1.6-0.4-2.2-1.1l-0.4-0.4l-0.2-0.4c-0.4-0.7-0.6-1.5-0.4-2.2
	c0.2-0.3,0.3-0.6,0.6-0.8c0.1-0.3,0.1-0.6,0.3-0.9c0.4-0.4,0.9-0.8,1.5-1c0.2,0,0.3-0.1,0.5-0.1c0.1-0.1,0.3-0.2,0.5-0.2
	c0.5-0.1,0.9,0,1.4,0.1c0.3,0.1,0.6,0.2,0.9,0.2l0,0l0,0C163.1,16.5,161,14.5,160.2,14.5 M159.2,7c-0.6,0.2-1.4,0-2,0.1l-0.7,0.3
	c-0.5,0.2-1.1,0.4-1.6,0.4l-1,0.2h-0.4l-0.4,0.3c-0.2,0.2-0.4,0.3-0.6,0.4c-0.5,0.2-1,0.4-1.5,0.7l-0.9,0.7
	c-0.2,0.1-0.4,0.2-0.6,0.3l-0.9,0.7c-0.6,0.5-1.2,0.9-1.8,1.4c-0.4,0.4-0.7,0.8-1,1.1l-0.4,0.3c-0.3,0.2-0.6,0.5-0.8,0.8
	c-0.4,0.4-0.7,0.9-0.9,1.4c-0.1,0.4-0.3,0.8-0.5,1.1c-0.3,0.3-0.7,0.6-1.1,0.8c-0.2,0.1-0.5,0.2-0.7,0.4c-0.6,0.5-0.6,1.5-1.1,2.1
	s-1.2,1.1-1.6,1.7c-0.1,0.2-0.3,0.4-0.4,0.7c-0.5,1.3-0.8,2.7-0.9,4.1c-0.1,0.5-0.1,1-0.2,1.5c0,0.2,0,0.4,0.1,0.6
	c0,0.9,0.1,1.8,0.4,2.7c0.1,0.7,0.3,1.4,0.6,2s0.7,1.2,1.1,1.7c0.3,0.4,0.5,0.9,0.8,1.3c0.2,0.2,0.4,0.4,0.6,0.6
	c0.5,0.6,0.9,1.1,1.5,1.6c0.9,0.8,1.9,1.6,3,2.2c0.7,0.5,1.4,0.9,2.1,1.2c1,0.4,2.1,0.8,3.1,1.1l1.5,0.3c1.4,0.3,2.8,0.5,4.2,0.5
	c0.3-0.1,0.5-0.1,0.8-0.1h0.1h0.2c0.3-0.2,0.5-0.1,0.7-0.4s0.1-0.5,0.2-0.7c0-1.1,0-2.3,0-3.4c0-0.8,0-1.5-0.1-2.2
	c0-0.4,0-0.7-0.1-1.1c0-0.1-0.1-0.1-0.1-0.2c-0.8-0.1-1.6-0.1-2.4,0h-0.6c-0.2-0.1-0.5-0.1-0.7-0.2c-0.5,0-1,0.1-1.5,0.2
	c-0.4,0-0.8-0.2-1.3-0.1c-0.3,0-0.7,0.1-1,0.2c-0.4,0.2-0.7,0.4-1.1,0.5c-1,0.3-2.2,0-3-0.7c-0.3-0.3-0.6-0.6-0.8-1l-0.5-0.7
	c-0.2-0.4-0.1-0.9,0.1-1.3c0.1-0.2,0.3-0.3,0.4-0.5c0.2-0.3,0.4-0.6,0.6-0.9c0.3-0.3,0.7-0.7,1.1-1.1c0.2-0.4,0.4-0.9,0.6-1.3
	c0.2-0.2,0.3-0.5,0.5-0.7c0.1-0.3,0.1-0.6,0.2-0.9c0.2-0.4,0.5-0.8,0.7-1.2s0.3-0.7,0.4-1.1c0.3-0.4,0.5-0.8,0.6-1.2
	c0.1-0.2,0.1-0.3,0-0.5c-0.1-0.1-0.2-0.2-0.3-0.3c-0.3-0.2-0.8-0.3-1.1-0.5c-0.8-0.5-1.4-1.1-1.8-1.9c-0.1-0.1-0.2-0.3-0.2-0.5
	c0.1-0.3,0.2-0.5,0.4-0.7c0.3-0.4,0.8-0.6,1.2-0.7h0.2c1.1-0.4,2.8,2.1,3.4,1.5c0.3-0.2,0.4-0.7,0.5-1l0.8-1.4l0.5-1
	c0.4-0.7,0.8-1.4,1.2-2l0.4-0.5c0.2-0.2,0.2-0.6,0.4-0.8c0.3-0.5,0.7-0.9,1-1.3c0.1-0.2,0.1-0.4,0.2-0.5l0.2-0.3
	c0.1-0.2,0.3-0.4,0.4-0.7l0.5-1.4c0.1-0.4,0.3-0.8,0.5-1.2s0.7-0.7,0.9-1.1S159.5,7.1,159.2,7 M165.3,7.1c-0.3,0.1-1.2,0.4-1.1,0.8
	V8l0.9,1.2c0.3,0.4,0.4,0.8,0.6,1.1c0.2,0.4,0.4,0.5,0.5,0.7l0.9,1.7c0.3,0.5,0.7,0.9,1,1.4l1.2,2c0.1,0.2,0.4,0.4,0.5,0.5
	c0.4,0.6,0.6,1.3,1.2,1.7c0.2,0.1,0.4,0.2,0.6,0.2c0.2,0,0.5-0.2,0.6-0.3l0.4-0.2c0.6-0.4,1.5-1.4,2.2-1.4h0.2
	c1.1-0.4,2.3,1.5,2.1,2.4c-0.1,0.3-0.3,0.5-0.5,0.6c-0.7,0.5-1.5,1-2.3,1.5c-0.3,0.1-0.5,0.3-0.6,0.6c-0.1,0.1-0.1,0.3-0.1,0.4
	c0.1,0.4,0.3,0.7,0.5,1c0.3,0.6,0.6,1.2,0.9,1.8l0.6,0.8c0.3,0.4,0.6,0.9,0.9,1.3s0.5,0.8,0.8,1.1c0.7,1,1.2,2.2,1.9,3.3l0.4,0.5
	c0.1,0.2,0.3,0.4,0.4,0.6s0.3,0.3,0.5,0.2s0.2-0.3,0.3-0.4c0.1-0.3,0.3-0.6,0.4-0.9c0.1-0.5,0.2-0.9,0.3-1.3c0.2-1,0.4-2,0.5-3
	c0-0.6,0-1.1,0-1.7s0.2-1.3,0.2-2c0-0.4-0.1-0.9-0.3-1.3c0-0.3-0.1-0.6-0.1-0.9c-0.1-0.2-0.1-0.4-0.2-0.6c-0.2-0.5-0.3-1.1-0.5-1.6
	c-0.5-1-1-1.9-1.6-2.8c-0.1-0.1-0.1-0.3-0.2-0.5s-0.1-0.2-0.1-0.4l-0.3-0.3l-0.5-0.6l-1.2-1.6c-0.3-0.3-0.6-0.5-0.9-0.8
	s-0.4-0.5-0.6-0.7c-0.6-0.6-1.2-1.1-1.9-1.5L173,9.2L169.3,8c-0.2-0.1-0.3-0.1-0.4-0.3l-0.5-0.2C167.4,7.3,166.4,7.1,165.3,7.1
	 M160.3,0.4h1c0.4,0.1,0.9,0.2,1.3,0.3c0.7,0,1.4,0,2.1,0.1l0.5,0.2l0.9,0.2l0.6,0.2c0.6,0.2,1.4,0.1,2,0.3c0.5,0.2,0.8,0.6,1.2,0.7
	c0.7,0.2,1.5,0.2,2.2,0.5c0.3,0.2,0.6,0.3,0.8,0.5l1.1,0.5c0.3,0.2,0.6,0.4,0.9,0.6c0.5,0.3,1,0.6,1.5,0.9c0.4,0.4,0.8,0.8,1.2,1.2
	l1.2,1.1c0.4,0.4,0.7,0.9,1.1,1.3c0.6,0.6,1.2,1.3,1.7,2c0.4,0.5,0.5,1.1,0.9,1.6s0.8,1,1.2,1.5c0.1,0.2,0.3,0.4,0.4,0.6
	c0.2,0.3,0.4,0.6,0.6,0.9c0.3,0.6,0.6,1.2,0.9,1.8c0.3,0.5,0.6,1.1,0.9,1.7c0.3,1.2,0.5,2.4,0.6,3.6c0.1,0.5,0.2,0.9,0.2,1.4
	c0,0.4-0.1,0.9-0.2,1.3c0,0.2-0.1,0.4-0.1,0.5s0,0.5,0,0.7c-0.1,0.6-0.1,1.2-0.2,1.8c0,0.2,0,0.5,0,0.7l-0.1,0.4
	c-0.1,0.3-0.1,0.6-0.1,0.9c0,0.7-0.1,1.4-0.2,2.1c-0.2,0.5-0.5,1-0.8,1.5c-0.1,0.4-0.2,0.7-0.4,1.1c-0.1,0.3-0.3,0.7-0.5,1
	c-0.1,0.3-0.2,0.5-0.4,0.8c-0.1,0.1-0.2,0.2-0.3,0.3l-0.3,0.2c-0.1,0.2-0.1,0.4-0.2,0.5c-0.2,0.4-0.4,0.7-0.6,1
	c-0.6,0.7-1.2,1.4-1.9,2c-0.2,0.3-0.5,0.6-0.6,0.9l-0.3,0.6c-0.5,0.4-1.1,0.9-1.6,1.3l-0.6,0.3c-0.4,0.3-0.6,0.8-1.1,1.2
	c-0.7,0.5-1.5,0.9-2.2,1.2c-0.4,0.3-0.8,0.6-1.3,0.9c-0.9,0.3-1.8,0.5-2.7,0.6l-0.7,0.2l-0.4,0.2c-0.3,0-0.7,0-1.1,0
	c-0.4,0.1-0.9,0.2-1.3,0.3l-0.8,0.2l-0.6,0.1l-0.4,0.2c-0.2,0.1-0.5,0.1-0.7,0.2c-0.9,0.4-2,0.7-3,0.9c-0.7,0-1.4-0.1-2-0.3
	c-0.4-0.2-0.9-0.3-1.3-0.4h-1.4l-0.5-0.1c-1-0.1-1.9-0.2-2.9-0.3c-0.3-0.1-0.5-0.2-0.7-0.3c-0.4-0.2-0.7-0.3-1.1-0.4
	c-0.9-0.3-1.9-0.5-2.8-0.9c-0.5-0.2-1-0.5-1.5-0.7c-1.1-0.6-2.3-1.2-3.3-1.9c-0.5-0.4-1-0.8-1.6-1.2l-0.9-0.5
	c-0.9-0.6-1.8-1.3-2.5-2.1s-1.1-1.7-1.8-2.5s-1.2-1.3-1.7-2c-0.2-0.3-0.3-0.7-0.5-1s-0.4-0.5-0.5-0.7c-0.3-0.6-0.4-1.2-0.6-1.8
	c-0.1-0.3-0.4-0.5-0.5-0.8s-0.1-0.4-0.1-0.6c-0.2-0.4-0.3-0.9-0.4-1.3c0-0.4,0-0.7-0.1-1.1v-0.6c0-0.4-0.2-0.8-0.2-1.2
	c0-0.5,0-1,0-1.5c0-0.4,0-0.9,0-1.3s0.2-1,0.3-1.5c0.1-0.2,0.1-0.3,0.2-0.5s0-0.5,0-0.8c0-0.4,0.1-0.7,0.2-1.1
	c0.2-0.7,0.5-1.3,0.7-1.9c0.1-0.3,0.2-0.5,0.3-0.8c0.1-0.2,0.2-0.4,0.3-0.6c0.1-0.3,0.1-0.7,0.1-1.1c0-0.1,0.1-0.3,0.1-0.4
	s0-0.4,0-0.6c0.2-0.6,0.4-1.1,0.6-1.6c0.1-0.4,0.1-0.7,0-1.1c0-0.6,0.1-1.1,0.4-1.6c0.2-0.2,0.3-0.4,0.6-0.6
	c0.1-0.1,0.2-0.2,0.2-0.4s0.3-0.2,0.5-0.4c0.3-0.2,0.6-0.4,0.9-0.6c0.6-0.2,1.1-0.4,1.6-0.7c0.3-0.3,0.5-0.7,0.9-1
	c0.2-0.2,0.5-0.4,0.8-0.5l0.6-0.3l1-0.9c0.7-0.5,1.4-1,2.1-1.4c0.2-0.1,0.5-0.4,0.8-0.4c0.4-0.2,0.8-0.3,1.1-0.5
	c0.7-0.4,1.3-0.8,2-1.2c0.3-0.1,0.6-0.2,0.9-0.3l1.4-0.5c0.5-0.2,0.9-0.6,1.4-0.6c0.2-0.1,0.3-0.1,0.5-0.1c0.2-0.1,0.4-0.1,0.6-0.1
	h0.2l0.4-0.1l0.3-0.1h0.2l0.8-0.2c0.1,0,0.3-0.1,0.4-0.1c0.1,0,0.3,0,0.4,0h0.3h0.2h0.4c0.1,0,0.1,0,0.2,0c0.2,0,0.6,0.2,0.8,0.2
	h0.6h0.1h0.3h0.2c0.2-0.1,0.4-0.1,0.6-0.1h0.1h0.1"/>
<path class="st0" d="M149.3,63.8c2.5-3.7,10.2-7.5,17.8-7.5s15.7,4.2,19,2c0,0-3.3,2.8-10,2.8s-9.2-3.3-13.8-3.3s-9.5,3.6-11.6,6.7
	L149.3,63.8z"/>
<path class="st0" d="M173.1,55.7c1.4-0.9,2.6-2.1,3.4-3.6c1.8-3.3,4.3-6.1,7.2-8.4c0,0-3.4,10.5-7,11c0,0-0.6,0.3,0.4,0.2
	s5.5-1.8,7.1-2s5.5-1.1,6.6-2.1c0.9-0.8,1.5-0.7,1.5-0.7s-4.4,7-12.2,7C177.7,56.8,175.4,56.4,173.1,55.7"/>
<path class="st0" d="M182.4,52.2c0.6-1,0.9-2.2,1-3.3c0.2-2.1,1.5-6.9,5.2-12.2c0,0,0.6,8.3-3.7,13.4c0,0-0.3,0.8,0.3,0.2
	c2.7-2.9,5.7-5.4,9.1-7.5c0,0,3-2.4,3.2-3.2C197.4,39.5,195.1,51.3,182.4,52.2"/>
<path class="st0" d="M189.7,44.2c0.2-0.8,0.3-1.6,0.3-2.5c0-1.1-0.5-5-0.5-6.7s0.2-4.9,1.6-7.1c0,0.9,0.1,1.9,0.4,2.8
	c0.5,1.5,0.8,3.1,0.9,4.7c0,1.7-0.3,3.3-0.9,4.9c0.5-0.4,0.9-0.9,1.2-1.5c1.2-2,2.7-3.8,4.4-5.4c1.3-1.1,2.2-2.6,2.8-4.2
	c0.2,2.8-0.7,5.6-2.4,7.9c-2.9,4.1-4.1,3.4-5.7,5C191.7,42.2,189.9,44.3,189.7,44.2"/>
<path class="st0" d="M194.3,35c0-1.1-0.2-2.1-0.6-3.1c-2-3.4-2.8-7.4-2.5-11.3c0,0,0.4-0.4,1.3,1.9s2,3,2.4,5.3
	c0.2,1.1,0.3,2.2,0.4,3.3c0,0,0.3,0.3,0.3,0c0.2-2.1,0.7-4.2,1.6-6.2c1.3-2.8,3.1-5.5,2.9-7.4c0,0,0.8,0,0.7,3.1
	S199.8,28.9,194.3,35"/>
<path class="st0" d="M195.7,25.6c-0.4-1-1-2-1.6-2.8c-0.7-0.7-5.2-7.2-5.6-10.1c0,0,0.4-0.2,0.8,0.5c0.9,1.2,1.9,2.2,3,3.2
	c0.4,0.3,2.7,2.7,2.9,5.3c0,0,0.2,0.3-0.2-4s1.4-7.1-0.1-10.1c0,0,2.1,0.3,3.3,9.1c-0.2,2.4-0.7,4.7-1.7,6.9
	C196.5,23.7,195.9,25.7,195.7,25.6"/>
<path class="st0" d="M194.1,16c-0.9-0.9-2-1.8-3.1-2.5c-1.4-0.8-5.7-4.9-6.4-8.1c0,0,0.3-0.4,1.6,1.4c1.1,1.3,2.1,0.7,5.3,4.5
	c0,0,0.4,0.9,0.7,0.8s-0.1-0.9-0.1-0.9c-0.3-1.1-0.5-2.2-0.7-3.3c-0.4-2.1-1-4.1-1.8-6c0,0,4.2,2.4,4.9,9
	C194.4,12.6,194.3,14.3,194.1,16"/>
<path class="st0" d="M190.4,8.9c0,0,0.3-5.8-7.6-8.7c0,0,2.7,5.4,4.8,6.7C188.6,7.5,189.5,8.1,190.4,8.9"/>
<path class="st0" d="M170.3,63.8c-2.5-3.7-10.2-7.5-17.8-7.5s-15.7,4.2-19,2c0,0,3.3,2.8,10,2.8s9.2-3.3,13.8-3.3s9.5,3.6,11.6,6.7
	L170.3,63.8z"/>
<path class="st0" d="M146.5,55.7c-1.4-0.9-2.6-2.1-3.4-3.6c-1.8-3.3-4.3-6.1-7.2-8.4c0,0,3.4,10.5,7,11c0,0,0.6,0.3-0.4,0.2
	s-5.5-1.8-7.1-2s-5.5-1.1-6.6-2.1c-0.9-0.8-1.5-0.7-1.5-0.7s4.4,7,12.2,7C141.9,56.8,144.2,56.4,146.5,55.7"/>
<path class="st0" d="M137.2,52.2c-0.6-1-0.9-2.2-1-3.3c-0.2-2.1-1.5-6.9-5.2-12.2c0,0-0.6,8.3,3.7,13.4c0,0,0.3,0.8-0.3,0.2
	c-2.7-2.9-5.7-5.4-9-7.5c0,0-3-2.4-3.2-3.2C122.2,39.6,124.6,51.3,137.2,52.2"/>
<path class="st0" d="M129.9,44.2c-0.2-0.8-0.3-1.6-0.3-2.5c0-1.1,0.5-5,0.5-6.7s-0.2-4.9-1.5-7.1c0,0.9-0.1,1.9-0.4,2.8
	c-0.5,1.5-0.8,3.1-0.9,4.7c0,1.7,0.3,3.3,0.9,4.9c-0.5-0.4-0.9-0.9-1.1-1.5c-1.2-2-2.7-3.8-4.4-5.4c-1.3-1.1-2.2-2.6-2.8-4.2
	c-0.2,2.8,0.7,5.6,2.4,7.9c2.9,4.1,4.1,3.4,5.7,5C127.9,42.2,129.7,44.3,129.9,44.2"/>
<path class="st0" d="M125.3,35c0-1.1,0.2-2.1,0.6-3.1c2-3.4,2.9-7.4,2.5-11.3c0,0-0.4-0.4-1.3,1.9s-2,3-2.4,5.3
	c-0.2,1.1-0.3,2.2-0.4,3.3c0,0-0.3,0.3-0.3,0c-0.2-2.1-0.7-4.2-1.6-6.2c-1.3-2.8-3.1-5.5-2.9-7.4c0,0-0.8,0-0.7,3.1
	S119.9,28.9,125.3,35"/>
<path class="st0" d="M123.9,25.6c0.4-1,1-2,1.6-2.8c0.7-0.7,5.2-7.2,5.6-10.1c0,0-0.4-0.2-0.8,0.5c-0.9,1.2-1.9,2.2-3,3.2
	c-0.4,0.3-2.7,2.7-2.9,5.3c0,0-0.2,0.3,0.2-4s-1.4-7.1,0.1-10.1c0,0-2.2,0.3-3.3,9.1c0.2,2.4,0.7,4.7,1.7,6.9
	C123.1,23.7,123.7,25.7,123.9,25.6"/>
<path class="st0" d="M125.6,16c0.9-0.9,2-1.8,3.1-2.5c1.4-0.8,5.7-4.9,6.5-8.1c0,0-0.3-0.4-1.7,1.4c-1.1,1.3-2.1,0.7-5.3,4.5
	c0,0-0.4,0.9-0.7,0.8s0.1-0.9,0.1-0.9c0.3-1.1,0.5-2.2,0.7-3.3c0.4-2.1,1-4.1,1.8-6c0,0-4.2,2.4-4.9,9
	C125.2,12.6,125.3,14.3,125.6,16"/>
<path class="st0" d="M129.2,8.9c0,0-0.3-5.8,7.5-8.7c0,0-2.7,5.4-4.7,6.7C131,7.5,130.1,8.2,129.2,8.9"/>
<path class="st0" d="M0,0.2h12.5v34.4c0,10.2,3.4,16.8,12.9,16.8s12.9-6.7,12.9-16.8V0.2h12.5v38.1c0,16-9.4,22.5-25.4,22.5
	S0,54.2,0,38.2V0.2z"/>
<polygon class="st0" points="59.6,0 74.9,0 98.6,45.5 98.8,45.5 98.8,0 110.7,0 110.7,60.9 95.5,60.9 71.7,15.3 71.6,15.3 
	71.6,60.9 59.6,60.9 "/>
<polygon class="st0" points="208.7,0 221.2,0 221.2,24.6 246.1,24.6 246.1,0 258.5,0 258.5,60.9 246.1,60.9 246.1,34.2 221.2,34.2 
	221.2,60.9 208.7,60.9 "/>
<path class="st0" d="M295.1,12.2H295l-9,25.1h18.2L295.1,12.2z M288.3,0h14.1l24.4,60.9H313l-5.3-14h-25.2l-5.4,14h-12.9L288.3,0z"
	/>
<path class="st0" d="M345.4,51.3h5.9c5.8,0,12.8-1.4,12.8-8.5c0-7.9-6.6-9.2-12.8-9.2h-5.9V51.3z M345.4,24.6h5.1
	c5.2,0,11.7-1.1,11.7-7.4c0-7.1-6.3-7.6-12-7.6h-4.8L345.4,24.6L345.4,24.6z M333,0h21.7c8,0,20,2.3,20,15.6c0,7.2-5,12.3-12.4,13.6
	v0.2c8.5,0.8,14.2,6.4,14.2,13.9c0,15.3-14.1,17.6-21.9,17.6H333V0z"/>
<rect x="384.5" class="st0" width="12.5" height="60.9"/>
<polygon class="st0" points="421.6,9.6 403.8,9.6 403.8,0 451.8,0 451.8,9.6 434,9.6 434,60.9 421.6,60.9 "/>
<path class="st0" d="M475.5,12.2h-0.2l-9,25.1h18.2L475.5,12.2z M468.7,0h14.1l24.4,60.9h-13.8l-5.4-14h-25.2l-5.4,14h-12.9L468.7,0
	z"/>
<polygon class="st0" points="517.1,9.6 499.3,9.6 499.3,0 547.3,0 547.3,9.6 529.5,9.6 529.5,60.9 517.1,60.9 "/>
</svg>
