<?xml version="1.0" encoding="UTF-8"?> <svg xmlns="http://www.w3.org/2000/svg" xmlns:xlink="http://www.w3.org/1999/xlink" width="169.045" height="26.835" viewBox="0 0 169.045 26.835"><defs><clipPath id="clip-path"><rect id="Rectangle_19" data-name="Rectangle 19" width="169.045" height="26.835" transform="translate(0 0)" fill="none"></rect></clipPath></defs><g id="Group_8" data-name="Group 8" transform="translate(0 0)"><path id="Path_43" data-name="Path 43" d="M20.083.373,12.727,20.994,5.372.373H0L9.3,26.407h6.86L25.455.373Z" fill="#214b9b"></path><g id="Group_7" data-name="Group 7"><g id="Group_6" data-name="Group 6" clip-path="url(#clip-path)"><path id="Path_44" data-name="Path 44" d="M24.378,26.408V.374H37.519C42.6.374,47.6,2.853,47.6,8.638c0,5-3.678,7.77-8.017,8.431l8.1,9.339H41.321l-7.976-9.215h-3.6v9.215ZM42.271,8.721c0-1.9-1.364-3.347-5.578-3.347H29.75v6.818h6.943c4.214,0,5.578-1.735,5.578-3.471" fill="#214b9b"></path><path id="Path_45" data-name="Path 45" d="M70.2,5.374H54.292V10.7H69.783v5H54.292v5.7H70.2v5H48.92V.374H70.2Z" fill="#214b9b"></path><path id="Path_46" data-name="Path 46" d="M93.671,5.374H77.72V10.7H93.477v5H77.72v10.7H72.347V.374H93.671Z" fill="#214b9b"></path><path id="Path_47" data-name="Path 47" d="M105.728,6.028,103.917.449l-.008-.033c0-.038.025-.057.074-.057h.287a.1.1,0,0,1,.1.065l1.589,5a.026.026,0,0,0,.025.017.024.024,0,0,0,.024-.017l1.606-5a.1.1,0,0,1,.1-.065h.27c.06,0,.082.03.065.09l-1.818,5.579a.1.1,0,0,1-.1.065h-.3a.1.1,0,0,1-.1-.065" fill="#161615"></path><path id="Path_48" data-name="Path 48" d="M109.657,5.925a1.636,1.636,0,0,1-.664-.655,1.981,1.981,0,0,1-.233-.971V2.152a1.977,1.977,0,0,1,.233-.97,1.639,1.639,0,0,1,.664-.656,2.06,2.06,0,0,1,1-.233,2.081,2.081,0,0,1,1,.233,1.652,1.652,0,0,1,.672.656,1.947,1.947,0,0,1,.238.97V4.3a1.951,1.951,0,0,1-.238.971,1.65,1.65,0,0,1-.672.655,2.07,2.07,0,0,1-1,.233,2.049,2.049,0,0,1-1-.233m2.064-.545a1.429,1.429,0,0,0,.406-1.065V2.144a1.431,1.431,0,0,0-.406-1.06,1.443,1.443,0,0,0-1.069-.406,1.416,1.416,0,0,0-1.056.406,1.436,1.436,0,0,0-.4,1.06V4.315a1.381,1.381,0,0,0,1.458,1.467,1.452,1.452,0,0,0,1.069-.4" fill="#161615"></path><path id="Path_49" data-name="Path 49" d="M113.8,6.011V.44a.073.073,0,0,1,.082-.082h.27a.073.073,0,0,1,.082.082V5.675a.029.029,0,0,0,.033.033h2.941a.073.073,0,0,1,.082.082v.221a.073.073,0,0,1-.082.082h-3.326a.073.073,0,0,1-.082-.082" fill="#161615"></path><path id="Path_50" data-name="Path 50" d="M119.483,6.028,117.672.449l-.008-.033c0-.038.025-.057.074-.057h.287a.1.1,0,0,1,.1.065l1.589,5a.026.026,0,0,0,.025.017.024.024,0,0,0,.024-.017l1.606-5a.1.1,0,0,1,.1-.065h.27c.06,0,.082.03.065.09l-1.818,5.579a.1.1,0,0,1-.1.065h-.3a.1.1,0,0,1-.1-.065" fill="#161615"></path><path id="Path_51" data-name="Path 51" d="M123.41,5.925a1.634,1.634,0,0,1-.663-.655,1.971,1.971,0,0,1-.234-.971V2.152a1.967,1.967,0,0,1,.234-.97,1.636,1.636,0,0,1,.663-.656,2.252,2.252,0,0,1,1.995,0,1.652,1.652,0,0,1,.672.656,1.947,1.947,0,0,1,.238.97V4.3a1.951,1.951,0,0,1-.238.971,1.65,1.65,0,0,1-.672.655,2.252,2.252,0,0,1-1.995,0m2.065-.545a1.432,1.432,0,0,0,.4-1.065V2.144a1.435,1.435,0,0,0-.4-1.06,1.445,1.445,0,0,0-1.069-.406,1.417,1.417,0,0,0-1.057.406,1.44,1.44,0,0,0-.4,1.06V4.315a1.38,1.38,0,0,0,1.458,1.467,1.454,1.454,0,0,0,1.069-.4" fill="#161615"></path><path id="Path_52" data-name="Path 52" d="M132.245,6.035l-1.254-2.6a.03.03,0,0,0-.032-.024h-1.548a.029.029,0,0,0-.033.032V6.011a.073.073,0,0,1-.082.082h-.271a.073.073,0,0,1-.082-.082V.44a.073.073,0,0,1,.082-.082h2.065a1.492,1.492,0,0,1,1.11.426,1.517,1.517,0,0,1,.422,1.114,1.513,1.513,0,0,1-.32.979,1.377,1.377,0,0,1-.86.5c-.027.011-.035.024-.024.04l1.253,2.581a.088.088,0,0,1,.008.041c0,.038-.022.058-.065.058h-.271a.1.1,0,0,1-.1-.058M129.378.776V3.012a.029.029,0,0,0,.033.033h1.638a1.1,1.1,0,0,0,.823-.32,1.123,1.123,0,0,0,.316-.827,1.134,1.134,0,0,0-.316-.835,1.1,1.1,0,0,0-.823-.32h-1.638a.029.029,0,0,0-.033.033" fill="#161615"></path><path id="Path_53" data-name="Path 53" d="M137.284.744h-3.1a.029.029,0,0,0-.033.033V2.989a.029.029,0,0,0,.033.032h2.2a.073.073,0,0,1,.082.082v.222a.072.072,0,0,1-.082.081h-2.2a.029.029,0,0,0-.033.033V5.675a.029.029,0,0,0,.033.033h3.1a.073.073,0,0,1,.082.082v.221a.073.073,0,0,1-.082.082h-3.49a.072.072,0,0,1-.082-.082V.441a.072.072,0,0,1,.082-.082h3.49a.073.073,0,0,1,.082.082V.662a.073.073,0,0,1-.082.082" fill="#161615"></path><path id="Path_54" data-name="Path 54" d="M138.627,5.753a1.3,1.3,0,0,1-.524-1.085V4.4a.072.072,0,0,1,.082-.082h.254a.073.073,0,0,1,.082.082v.246a.974.974,0,0,0,.417.819,1.88,1.88,0,0,0,1.147.311,1.661,1.661,0,0,0,1.041-.282.941.941,0,0,0,.36-.782.892.892,0,0,0-.159-.529,1.585,1.585,0,0,0-.492-.422,7.909,7.909,0,0,0-.938-.45q-.639-.271-.963-.451a1.565,1.565,0,0,1-.52-.454,1.192,1.192,0,0,1-.2-.71A1.244,1.244,0,0,1,138.68.657a2.03,2.03,0,0,1,1.282-.364,2.169,2.169,0,0,1,1.4.41,1.334,1.334,0,0,1,.508,1.1v.188a.072.072,0,0,1-.082.082h-.27a.072.072,0,0,1-.082-.082V1.825a1.016,1.016,0,0,0-.393-.832,1.729,1.729,0,0,0-1.106-.315,1.546,1.546,0,0,0-.959.258.878.878,0,0,0-.335.741.854.854,0,0,0,.155.533,1.311,1.311,0,0,0,.446.356c.194.1.493.233.9.4a7.2,7.2,0,0,1,.979.471,1.921,1.921,0,0,1,.585.529,1.236,1.236,0,0,1,.214.729,1.307,1.307,0,0,1-.492,1.065,2.125,2.125,0,0,1-1.377.4,2.273,2.273,0,0,1-1.425-.405" fill="#161615"></path><path id="Path_55" data-name="Path 55" d="M146.565.744h-3.1a.029.029,0,0,0-.032.033V2.989a.029.029,0,0,0,.032.032h2.2a.073.073,0,0,1,.082.082v.222a.072.072,0,0,1-.082.081h-2.2a.029.029,0,0,0-.032.033V5.675a.029.029,0,0,0,.032.033h3.1a.073.073,0,0,1,.082.082v.221a.073.073,0,0,1-.082.082h-3.49a.073.073,0,0,1-.082-.082V.441a.073.073,0,0,1,.082-.082h3.49a.073.073,0,0,1,.082.082V.662a.073.073,0,0,1-.082.082" fill="#161615"></path><path id="Path_56" data-name="Path 56" d="M151,6.027l-.353-1.09a.031.031,0,0,0-.032-.024h-2.556a.033.033,0,0,0-.033.024l-.344,1.09a.1.1,0,0,1-.1.066h-.287c-.06,0-.082-.03-.065-.091L149.047.423a.1.1,0,0,1,.1-.065h.368a.1.1,0,0,1,.1.065L151.439,6l.009.033c0,.038-.025.058-.075.058H151.1a.1.1,0,0,1-.1-.066M148.158,4.54a.041.041,0,0,0,.029.013h2.294a.041.041,0,0,0,.028-.013.02.02,0,0,0,0-.028L149.359.948a.027.027,0,0,0-.025-.016.026.026,0,0,0-.025.016l-1.155,3.564a.021.021,0,0,0,0,.028" fill="#161615"></path><path id="Path_57" data-name="Path 57" d="M155.642,6.035l-1.253-2.6a.032.032,0,0,0-.033-.024h-1.548a.029.029,0,0,0-.033.032V6.011a.073.073,0,0,1-.082.082h-.27a.073.073,0,0,1-.082-.082V.44a.073.073,0,0,1,.082-.082h2.064a1.492,1.492,0,0,1,1.11.426,1.517,1.517,0,0,1,.422,1.114,1.512,1.512,0,0,1-.319.979,1.382,1.382,0,0,1-.86.5c-.028.011-.036.024-.025.04l1.254,2.581a.1.1,0,0,1,.008.041c0,.038-.023.058-.066.058h-.27a.1.1,0,0,1-.1-.058M152.775.776V3.012a.029.029,0,0,0,.033.033h1.638a1.1,1.1,0,0,0,.824-.32,1.127,1.127,0,0,0,.315-.827,1.138,1.138,0,0,0-.315-.835,1.108,1.108,0,0,0-.824-.32h-1.638a.029.029,0,0,0-.033.033" fill="#161615"></path><path id="Path_58" data-name="Path 58" d="M157.813,5.946a1.583,1.583,0,0,1-.659-.627,1.825,1.825,0,0,1-.234-.93V2.055a1.783,1.783,0,0,1,.234-.922,1.6,1.6,0,0,1,.659-.619,2.3,2.3,0,0,1,1.958,0,1.6,1.6,0,0,1,.66.61,1.758,1.758,0,0,1,.233.91v.008a.084.084,0,0,1-.025.065.075.075,0,0,1-.057.025l-.27.016a.072.072,0,0,1-.082-.082V2.038a1.3,1.3,0,0,0-.393-.987,1.649,1.649,0,0,0-2.089,0,1.294,1.294,0,0,0-.394.987V4.414a1.3,1.3,0,0,0,.4.991,1.63,1.63,0,0,0,2.085,0,1.314,1.314,0,0,0,.393-.991V4.4c0-.048.027-.073.082-.073l.27.016c.055,0,.082.025.082.074a1.774,1.774,0,0,1-.233.913,1.611,1.611,0,0,1-.66.619,2.279,2.279,0,0,1-1.958,0" fill="#161615"></path><path id="Path_59" data-name="Path 59" d="M165.235.359h.27a.073.073,0,0,1,.082.082V6.012a.073.073,0,0,1-.082.082h-.27a.073.073,0,0,1-.082-.082V3.439a.029.029,0,0,0-.033-.032H162.3a.029.029,0,0,0-.033.032V6.012a.073.073,0,0,1-.082.082h-.27a.073.073,0,0,1-.082-.082V.441a.073.073,0,0,1,.082-.082h.27a.073.073,0,0,1,.082.082V2.989c0,.022.011.032.033.032h2.818c.022,0,.033-.01.033-.032V.441a.073.073,0,0,1,.082-.082" fill="#161615"></path><path id="Path_60" data-name="Path 60" d="M107.686,16.186l-.352-1.09a.033.033,0,0,0-.033-.024h-2.556a.03.03,0,0,0-.032.024l-.345,1.09a.1.1,0,0,1-.1.066h-.288c-.059,0-.082-.03-.065-.091l1.819-5.579a.1.1,0,0,1,.1-.065h.368a.1.1,0,0,1,.1.065l1.828,5.579.007.033c0,.038-.023.058-.073.058h-.278a.1.1,0,0,1-.1-.066M104.848,14.7a.039.039,0,0,0,.029.013h2.294a.045.045,0,0,0,.028-.013.024.024,0,0,0,0-.028l-1.154-3.564a.025.025,0,0,0-.025-.016.027.027,0,0,0-.025.016l-1.155,3.564a.023.023,0,0,0,0,.028" fill="#161615"></path><path id="Path_61" data-name="Path 61" d="M112.569,10.517h.27a.073.073,0,0,1,.082.082V16.17a.072.072,0,0,1-.082.081h-.27a.121.121,0,0,1-.1-.057L109.5,11.385c-.006-.016-.014-.023-.025-.02s-.016.012-.016.029V16.17a.072.072,0,0,1-.082.081h-.27a.072.072,0,0,1-.082-.081V10.6a.073.073,0,0,1,.082-.082h.279a.12.12,0,0,1,.1.058l2.957,4.808c0,.017.014.024.024.02s.017-.012.017-.028V10.6a.073.073,0,0,1,.082-.082" fill="#161615"></path><path id="Path_62" data-name="Path 62" d="M114.346,16.169V10.6a.072.072,0,0,1,.082-.082h1.9a1.794,1.794,0,0,1,1.245.413,1.445,1.445,0,0,1,.458,1.127v2.654a1.445,1.445,0,0,1-.458,1.127,1.789,1.789,0,0,1-1.245.413h-1.9a.072.072,0,0,1-.082-.082m.467-.3h1.54a1.242,1.242,0,0,0,.905-.323,1.2,1.2,0,0,0,.34-.881V12.106a1.176,1.176,0,0,0-.331-.881,1.258,1.258,0,0,0-.914-.323h-1.54a.029.029,0,0,0-.033.033v4.9a.029.029,0,0,0,.033.033" fill="#161615"></path><path id="Path_63" data-name="Path 63" d="M124.128,10.9h-3.1a.029.029,0,0,0-.033.033v2.212a.029.029,0,0,0,.033.032h2.2a.073.073,0,0,1,.082.082v.222a.072.072,0,0,1-.082.081h-2.2a.029.029,0,0,0-.033.033v2.236a.029.029,0,0,0,.033.033h3.1a.073.073,0,0,1,.082.082v.221a.073.073,0,0,1-.082.082h-3.49a.072.072,0,0,1-.082-.082V10.6a.072.072,0,0,1,.082-.082h3.49a.073.073,0,0,1,.082.082v.221a.073.073,0,0,1-.082.082" fill="#161615"></path><path id="Path_64" data-name="Path 64" d="M125.315,16.169V10.6a.072.072,0,0,1,.082-.082h1.9a1.794,1.794,0,0,1,1.245.413A1.445,1.445,0,0,1,129,12.057v2.654a1.445,1.445,0,0,1-.458,1.127,1.789,1.789,0,0,1-1.245.413h-1.9a.072.072,0,0,1-.082-.082m.467-.3h1.54a1.242,1.242,0,0,0,.905-.323,1.2,1.2,0,0,0,.34-.881V12.106a1.175,1.175,0,0,0-.331-.881,1.258,1.258,0,0,0-.914-.323h-1.54a.029.029,0,0,0-.033.033v4.9a.029.029,0,0,0,.033.033" fill="#161615"></path><path id="Path_65" data-name="Path 65" d="M130.972,16.091a1.63,1.63,0,0,1-.668-.635,1.847,1.847,0,0,1-.238-.942V10.6a.072.072,0,0,1,.082-.081h.271a.072.072,0,0,1,.082.081v3.933a1.335,1.335,0,0,0,.4,1.015,1.657,1.657,0,0,0,2.126,0,1.339,1.339,0,0,0,.4-1.015V10.6a.072.072,0,0,1,.082-.081h.271a.072.072,0,0,1,.082.081v3.916a1.837,1.837,0,0,1-.238.942,1.624,1.624,0,0,1-.668.635,2.313,2.313,0,0,1-1.99,0" fill="#161615"></path><path id="Path_66" data-name="Path 66" d="M135.941,16.1a1.591,1.591,0,0,1-.66-.627,1.835,1.835,0,0,1-.233-.93V12.213a1.792,1.792,0,0,1,.233-.922,1.611,1.611,0,0,1,.66-.619,2.107,2.107,0,0,1,.983-.221,2.13,2.13,0,0,1,.975.217,1.6,1.6,0,0,1,.659.61,1.749,1.749,0,0,1,.234.91V12.2a.087.087,0,0,1-.025.065.077.077,0,0,1-.057.025l-.27.016a.072.072,0,0,1-.082-.082V12.2a1.3,1.3,0,0,0-.394-.987,1.649,1.649,0,0,0-2.089,0,1.3,1.3,0,0,0-.393.987v2.376a1.3,1.3,0,0,0,.4.991,1.629,1.629,0,0,0,2.084,0,1.311,1.311,0,0,0,.394-.991v-.017c0-.048.027-.073.082-.073l.27.016c.054,0,.082.025.082.074a1.765,1.765,0,0,1-.234.913,1.614,1.614,0,0,1-.659.619,2.279,2.279,0,0,1-1.958,0" fill="#161615"></path><path id="Path_67" data-name="Path 67" d="M143.206,16.186l-.352-1.09a.031.031,0,0,0-.032-.024h-2.556a.032.032,0,0,0-.033.024l-.344,1.09a.1.1,0,0,1-.1.066H139.5c-.06,0-.082-.03-.066-.091l1.819-5.579a.1.1,0,0,1,.1-.065h.369a.1.1,0,0,1,.1.065l1.827,5.579.008.033c0,.038-.024.058-.074.058H143.3a.1.1,0,0,1-.1-.066M140.368,14.7a.041.041,0,0,0,.029.013h2.294a.041.041,0,0,0,.028-.013.023.023,0,0,0,0-.028l-1.155-3.564a.025.025,0,0,0-.024-.016.027.027,0,0,0-.025.016l-1.155,3.564a.021.021,0,0,0,0,.028" fill="#161615"></path><path id="Path_68" data-name="Path 68" d="M147.958,10.6v.221a.073.073,0,0,1-.082.082h-1.638a.029.029,0,0,0-.033.033V16.17a.073.073,0,0,1-.082.082h-.27a.073.073,0,0,1-.082-.082V10.935a.029.029,0,0,0-.033-.033h-1.557a.073.073,0,0,1-.082-.082V10.6a.073.073,0,0,1,.082-.082h3.7a.073.073,0,0,1,.082.082" fill="#161615"></path><path id="Path_69" data-name="Path 69" d="M148.933,16.169V10.6a.073.073,0,0,1,.082-.082h.271a.073.073,0,0,1,.082.082v5.571a.073.073,0,0,1-.082.082h-.271a.073.073,0,0,1-.082-.082" fill="#161615"></path><path id="Path_70" data-name="Path 70" d="M151.509,16.083a1.634,1.634,0,0,1-.663-.655,1.971,1.971,0,0,1-.234-.971V12.31a1.967,1.967,0,0,1,.234-.97,1.636,1.636,0,0,1,.663-.656,2.252,2.252,0,0,1,1.995,0,1.652,1.652,0,0,1,.672.656,1.947,1.947,0,0,1,.238.97v2.147a1.951,1.951,0,0,1-.238.971,1.65,1.65,0,0,1-.672.655,2.252,2.252,0,0,1-1.995,0m2.065-.545a1.432,1.432,0,0,0,.4-1.065V12.3a1.392,1.392,0,0,0-1.474-1.466,1.417,1.417,0,0,0-1.057.406,1.44,1.44,0,0,0-.4,1.06v2.171a1.38,1.38,0,0,0,1.458,1.467,1.454,1.454,0,0,0,1.069-.4" fill="#161615"></path><path id="Path_71" data-name="Path 71" d="M159.19,10.517h.27a.073.073,0,0,1,.082.082V16.17a.072.072,0,0,1-.082.081h-.27a.121.121,0,0,1-.1-.057l-2.965-4.809c-.006-.016-.014-.023-.025-.02s-.016.012-.016.029V16.17a.072.072,0,0,1-.082.081h-.27a.072.072,0,0,1-.082-.081V10.6a.073.073,0,0,1,.082-.082h.279a.12.12,0,0,1,.1.058l2.957,4.808c.005.017.014.024.024.02s.017-.012.017-.028V10.6a.073.073,0,0,1,.082-.082" fill="#161615"></path><path id="Path_72" data-name="Path 72" d="M164.211,16.186l-.352-1.09a.031.031,0,0,0-.032-.024h-2.556a.031.031,0,0,0-.033.024l-.344,1.09a.1.1,0,0,1-.1.066h-.287c-.06,0-.082-.03-.066-.091l1.819-5.579a.1.1,0,0,1,.1-.065h.369a.1.1,0,0,1,.1.065l1.827,5.579.008.033c0,.038-.024.058-.074.058h-.278a.1.1,0,0,1-.1-.066M161.373,14.7a.041.041,0,0,0,.029.013H163.7a.041.041,0,0,0,.028-.013.023.023,0,0,0,0-.028l-1.155-3.564a.025.025,0,0,0-.024-.016.027.027,0,0,0-.025.016l-1.155,3.564a.021.021,0,0,0,0,.028" fill="#161615"></path><path id="Path_73" data-name="Path 73" d="M165.555,16.169V10.6a.073.073,0,0,1,.082-.082h.271a.073.073,0,0,1,.082.082v5.235c0,.022.01.033.032.033h2.941a.073.073,0,0,1,.082.082v.221a.073.073,0,0,1-.082.082h-3.326a.073.073,0,0,1-.082-.082" fill="#161615"></path><path id="Path_74" data-name="Path 74" d="M108,21.06h-3.1a.029.029,0,0,0-.033.033v2.212a.029.029,0,0,0,.033.032H107.1a.073.073,0,0,1,.082.082v.222a.072.072,0,0,1-.082.081h-2.195a.029.029,0,0,0-.033.033v2.572a.073.073,0,0,1-.082.082h-.271a.073.073,0,0,1-.082-.082v-5.57a.073.073,0,0,1,.082-.082H108a.072.072,0,0,1,.082.082v.221a.073.073,0,0,1-.082.082" fill="#161615"></path><path id="Path_75" data-name="Path 75" d="M109.575,26.242a1.636,1.636,0,0,1-.664-.655,1.981,1.981,0,0,1-.233-.971V22.469a1.977,1.977,0,0,1,.233-.97,1.638,1.638,0,0,1,.664-.656,2.06,2.06,0,0,1,1-.233,2.081,2.081,0,0,1,1,.233,1.652,1.652,0,0,1,.672.656,1.947,1.947,0,0,1,.238.97v2.147a1.951,1.951,0,0,1-.238.971,1.65,1.65,0,0,1-.672.655,2.07,2.07,0,0,1-1,.233,2.049,2.049,0,0,1-1-.233m2.064-.545a1.429,1.429,0,0,0,.406-1.065V22.461A1.394,1.394,0,0,0,110.57,21a1.416,1.416,0,0,0-1.056.406,1.436,1.436,0,0,0-.4,1.06v2.171A1.381,1.381,0,0,0,110.57,26.1a1.452,1.452,0,0,0,1.069-.4" fill="#161615"></path><path id="Path_76" data-name="Path 76" d="M114.555,26.25a1.63,1.63,0,0,1-.668-.635,1.847,1.847,0,0,1-.238-.942V20.757a.073.073,0,0,1,.082-.082H114a.073.073,0,0,1,.082.082V24.69a1.335,1.335,0,0,0,.4,1.015,1.657,1.657,0,0,0,2.126,0,1.339,1.339,0,0,0,.4-1.015V20.757a.073.073,0,0,1,.082-.082h.271a.073.073,0,0,1,.082.082v3.916a1.837,1.837,0,0,1-.238.942,1.624,1.624,0,0,1-.668.635,2.313,2.313,0,0,1-1.99,0" fill="#161615"></path><path id="Path_77" data-name="Path 77" d="M122.358,20.675h.27a.073.073,0,0,1,.082.082v5.571a.073.073,0,0,1-.082.082h-.27a.123.123,0,0,1-.1-.058l-2.965-4.809c-.006-.016-.014-.023-.025-.02s-.016.012-.016.029v4.776a.073.073,0,0,1-.082.082h-.27a.073.073,0,0,1-.082-.082V20.757a.073.073,0,0,1,.082-.082h.279a.12.12,0,0,1,.1.058l2.957,4.808c0,.017.014.024.024.021s.017-.013.017-.029V20.757a.073.073,0,0,1,.082-.082" fill="#161615"></path><path id="Path_78" data-name="Path 78" d="M124.136,26.327v-5.57a.072.072,0,0,1,.082-.082h1.9a1.794,1.794,0,0,1,1.245.413,1.445,1.445,0,0,1,.458,1.127v2.654A1.445,1.445,0,0,1,127.364,26a1.789,1.789,0,0,1-1.245.413h-1.9a.072.072,0,0,1-.082-.082m.467-.3h1.54a1.242,1.242,0,0,0,.9-.323,1.2,1.2,0,0,0,.34-.881V22.264a1.176,1.176,0,0,0-.331-.881,1.258,1.258,0,0,0-.914-.323H124.6a.029.029,0,0,0-.033.033v4.9a.029.029,0,0,0,.033.033" fill="#161615"></path><path id="Path_79" data-name="Path 79" d="M132.2,26.344l-.352-1.09a.031.031,0,0,0-.032-.024h-2.556a.031.031,0,0,0-.033.024l-.344,1.09a.1.1,0,0,1-.1.066h-.287c-.06,0-.082-.03-.066-.091l1.819-5.579a.1.1,0,0,1,.1-.065h.369a.1.1,0,0,1,.1.065l1.827,5.579.008.033c0,.038-.024.058-.074.058h-.278a.1.1,0,0,1-.1-.066m-2.838-1.487a.041.041,0,0,0,.029.013h2.294a.041.041,0,0,0,.028-.013.023.023,0,0,0,0-.028l-1.155-3.564a.025.025,0,0,0-.024-.016.027.027,0,0,0-.025.016l-1.155,3.564a.021.021,0,0,0,0,.028" fill="#161615"></path><path id="Path_80" data-name="Path 80" d="M136.948,20.757v.221a.073.073,0,0,1-.082.082h-1.638a.029.029,0,0,0-.033.033v5.235a.073.073,0,0,1-.082.082h-.27a.073.073,0,0,1-.082-.082V21.093a.029.029,0,0,0-.033-.033h-1.557a.073.073,0,0,1-.082-.082v-.221a.073.073,0,0,1,.082-.082h3.695a.073.073,0,0,1,.082.082" fill="#161615"></path><path id="Path_81" data-name="Path 81" d="M137.923,26.328V20.757a.073.073,0,0,1,.082-.082h.271a.073.073,0,0,1,.082.082v5.571a.073.073,0,0,1-.082.082h-.271a.073.073,0,0,1-.082-.082" fill="#161615"></path><path id="Path_82" data-name="Path 82" d="M140.5,26.242a1.634,1.634,0,0,1-.663-.655,1.971,1.971,0,0,1-.234-.971V22.469a1.967,1.967,0,0,1,.234-.97,1.636,1.636,0,0,1,.663-.656,2.252,2.252,0,0,1,2,0,1.652,1.652,0,0,1,.672.656,1.947,1.947,0,0,1,.238.97v2.147a1.951,1.951,0,0,1-.238.971,1.65,1.65,0,0,1-.672.655,2.252,2.252,0,0,1-2,0m2.065-.545a1.432,1.432,0,0,0,.4-1.065V22.461A1.392,1.392,0,0,0,141.495,21a1.417,1.417,0,0,0-1.057.406,1.44,1.44,0,0,0-.4,1.06v2.171a1.38,1.38,0,0,0,1.458,1.467,1.454,1.454,0,0,0,1.069-.4" fill="#161615"></path><path id="Path_83" data-name="Path 83" d="M148.18,20.675h.269a.072.072,0,0,1,.082.082v5.571a.072.072,0,0,1-.082.082h-.269a.123.123,0,0,1-.1-.058l-2.965-4.809c-.006-.016-.013-.023-.025-.02s-.016.012-.016.029v4.776a.072.072,0,0,1-.082.082h-.269a.072.072,0,0,1-.082-.082V20.757a.072.072,0,0,1,.082-.082H145a.121.121,0,0,1,.1.058l2.957,4.808c0,.017.013.024.023.021a.027.027,0,0,0,.018-.029V20.757a.073.073,0,0,1,.082-.082" fill="#161615"></path><path id="Path_84" data-name="Path 84" d="M150.113,26.07a1.3,1.3,0,0,1-.525-1.085v-.271a.073.073,0,0,1,.082-.082h.254a.072.072,0,0,1,.082.082v.246a.975.975,0,0,0,.418.819,1.878,1.878,0,0,0,1.147.311,1.663,1.663,0,0,0,1.041-.282.941.941,0,0,0,.36-.782.886.886,0,0,0-.16-.529,1.562,1.562,0,0,0-.492-.422,7.8,7.8,0,0,0-.937-.45q-.639-.271-.963-.451a1.555,1.555,0,0,1-.52-.454,1.2,1.2,0,0,1-.2-.71,1.244,1.244,0,0,1,.463-1.036,2.03,2.03,0,0,1,1.282-.364,2.169,2.169,0,0,1,1.4.41,1.333,1.333,0,0,1,.508,1.1v.188a.072.072,0,0,1-.082.082h-.27a.072.072,0,0,1-.082-.082v-.163a1.019,1.019,0,0,0-.393-.832A1.729,1.729,0,0,0,151.424,21a1.546,1.546,0,0,0-.959.258.878.878,0,0,0-.336.741.854.854,0,0,0,.156.533,1.3,1.3,0,0,0,.446.356c.194.1.493.233.9.4a7.126,7.126,0,0,1,.978.471,1.925,1.925,0,0,1,.586.529,1.235,1.235,0,0,1,.213.729,1.307,1.307,0,0,1-.492,1.065,2.12,2.12,0,0,1-1.376.4,2.272,2.272,0,0,1-1.425-.405" fill="#161615"></path><line id="Line_2" data-name="Line 2" y2="26.835" transform="translate(98.582 0)" fill="none" stroke="#161615" stroke-miterlimit="10" stroke-width="0.5"></line></g></g></g></svg> 